<svg width="66" height="66" viewBox="0 0 66 66" fill="none" xmlns="http://www.w3.org/2000/svg">
<path d="M47.2188 7.84375H48.3125V8.9375C48.3125 9.22758 48.4277 9.50578 48.6329 9.7109C48.838 9.91602 49.1162 10.0312 49.4062 10.0312C49.6963 10.0312 49.9745 9.91602 50.1796 9.7109C50.3848 9.50578 50.5 9.22758 50.5 8.9375V7.84375H51.5938C51.8838 7.84375 52.162 7.72852 52.3671 7.5234C52.5723 7.31828 52.6875 7.04008 52.6875 6.75C52.6875 6.45992 52.5723 6.18172 52.3671 5.9766C52.162 5.77148 51.8838 5.65625 51.5938 5.65625H50.5V4.5625C50.5 4.27242 50.3848 3.99422 50.1796 3.7891C49.9745 3.58398 49.6963 3.46875 49.4062 3.46875C49.1162 3.46875 48.838 3.58398 48.6329 3.7891C48.4277 3.99422 48.3125 4.27242 48.3125 4.5625V5.65625H47.2188C46.9287 5.65625 46.6505 5.77148 46.4454 5.9766C46.2402 6.18172 46.125 6.45992 46.125 6.75C46.125 7.04008 46.2402 7.31828 46.4454 7.5234C46.6505 7.72852 46.9287 7.84375 47.2188 7.84375Z" fill="white"/>
<path d="M39.5625 4.5625H40.6562V5.65625C40.6562 5.94633 40.7715 6.22453 40.9766 6.42965C41.1817 6.63477 41.4599 6.75 41.75 6.75C42.0401 6.75 42.3183 6.63477 42.5234 6.42965C42.7285 6.22453 42.8438 5.94633 42.8438 5.65625V4.5625H43.9375C44.2276 4.5625 44.5058 4.44727 44.7109 4.24215C44.916 4.03703 45.0312 3.75883 45.0312 3.46875C45.0312 3.17867 44.916 2.90047 44.7109 2.69535C44.5058 2.49023 44.2276 2.375 43.9375 2.375H42.8438V1.28125C42.8438 0.991169 42.7285 0.71297 42.5234 0.507852C42.3183 0.302734 42.0401 0.1875 41.75 0.1875C41.4599 0.1875 41.1817 0.302734 40.9766 0.507852C40.7715 0.71297 40.6562 0.991169 40.6562 1.28125V2.375H39.5625C39.2724 2.375 38.9942 2.49023 38.7891 2.69535C38.584 2.90047 38.4688 3.17867 38.4688 3.46875C38.4688 3.75883 38.584 4.03703 38.7891 4.24215C38.9942 4.44727 39.2724 4.5625 39.5625 4.5625Z" fill="white"/>
<path d="M14.4062 7.84375H15.5V8.9375C15.5 9.22758 15.6152 9.50578 15.8204 9.7109C16.0255 9.91602 16.3037 10.0312 16.5938 10.0312C16.8838 10.0312 17.162 9.91602 17.3671 9.7109C17.5723 9.50578 17.6875 9.22758 17.6875 8.9375V7.84375H18.7812C19.0713 7.84375 19.3495 7.72852 19.5546 7.5234C19.7598 7.31828 19.875 7.04008 19.875 6.75C19.875 6.45992 19.7598 6.18172 19.5546 5.9766C19.3495 5.77148 19.0713 5.65625 18.7812 5.65625H17.6875V4.5625C17.6875 4.27242 17.5723 3.99422 17.3671 3.7891C17.162 3.58398 16.8838 3.46875 16.5938 3.46875C16.3037 3.46875 16.0255 3.58398 15.8204 3.7891C15.6152 3.99422 15.5 4.27242 15.5 4.5625V5.65625H14.4062C14.1162 5.65625 13.838 5.77148 13.6329 5.9766C13.4277 6.18172 13.3125 6.45992 13.3125 6.75C13.3125 7.04008 13.4277 7.31828 13.6329 7.5234C13.838 7.72852 14.1162 7.84375 14.4062 7.84375Z" fill="white"/>
<path d="M22.0625 4.5625H23.1562V5.65625C23.1562 5.94633 23.2715 6.22453 23.4766 6.42965C23.6817 6.63477 23.9599 6.75 24.25 6.75C24.5401 6.75 24.8183 6.63477 25.0234 6.42965C25.2285 6.22453 25.3438 5.94633 25.3438 5.65625V4.5625H26.4375C26.7276 4.5625 27.0058 4.44727 27.2109 4.24215C27.416 4.03703 27.5312 3.75883 27.5312 3.46875C27.5312 3.17867 27.416 2.90047 27.2109 2.69535C27.0058 2.49023 26.7276 2.375 26.4375 2.375H25.3438V1.28125C25.3438 0.991169 25.2285 0.71297 25.0234 0.507852C24.8183 0.302734 24.5401 0.1875 24.25 0.1875C23.9599 0.1875 23.6817 0.302734 23.4766 0.507852C23.2715 0.71297 23.1562 0.991169 23.1562 1.28125V2.375H22.0625C21.7724 2.375 21.4942 2.49023 21.2891 2.69535C21.084 2.90047 20.9688 3.17867 20.9688 3.46875C20.9688 3.75883 21.084 4.03703 21.2891 4.24215C21.4942 4.44727 21.7724 4.5625 22.0625 4.5625Z" fill="white"/>
<path d="M40.3548 19.7897C40.1644 19.7755 39.9698 19.7689 39.774 19.7689C38.4569 19.7667 37.1577 20.074 35.9812 20.666C34.8046 21.258 33.7836 22.1181 33.0004 23.177C32.2175 22.1175 31.1967 21.2568 30.0201 20.6642C28.8435 20.0716 27.5442 19.7638 26.2268 19.7656C26.031 19.7656 25.8363 19.7722 25.6493 19.7853C24.3253 19.87 23.0501 20.3168 21.9628 21.077C20.8755 21.8372 20.018 22.8814 19.4838 24.0958C18.9035 25.3642 18.6793 26.7667 18.8354 28.1529C18.9914 29.5391 19.5219 30.8566 20.3698 31.9642L32.167 45.845C32.2696 45.9658 32.3973 46.0629 32.5413 46.1294C32.6852 46.196 32.8418 46.2305 33.0004 46.2305C33.1589 46.2305 33.3156 46.196 33.4595 46.1294C33.6034 46.0629 33.7311 45.9658 33.8338 45.845C33.8338 45.845 45.6573 31.9358 45.6693 31.9194C46.5041 30.8141 47.0237 29.5033 47.173 28.1263C47.3222 26.7493 47.0955 25.3575 46.517 24.0991C45.9832 22.8852 45.1262 21.8412 44.0394 21.0813C42.9527 20.3213 41.6781 19.8745 40.3548 19.7897ZM43.9434 30.5752L33.0004 43.4486L22.0749 30.5992C21.4789 29.8081 21.1084 28.8703 21.0027 27.8854C20.8969 26.9005 21.06 25.9054 21.4745 25.0058C21.8482 24.1521 22.4494 23.4176 23.2122 22.8823C23.9751 22.347 24.8703 22.0317 25.8002 21.9706C25.9413 21.9608 26.0824 21.9564 26.2268 21.9564C27.4599 21.9551 28.6656 22.3194 29.6916 23.0033C30.7176 23.6873 31.5178 24.6601 31.9909 25.7988C32.0739 25.998 32.2141 26.1683 32.3938 26.288C32.5734 26.4077 32.7845 26.4716 33.0004 26.4716C33.2163 26.4716 33.4274 26.4077 33.607 26.288C33.7867 26.1683 33.9268 25.998 34.0099 25.7988C34.51 24.5914 35.3773 23.572 36.489 22.885C37.6006 22.1979 38.9003 21.878 40.2038 21.9706C41.1331 22.0318 42.0278 22.3471 42.7901 22.8822C43.5523 23.4173 44.153 24.1515 44.5263 25.0047C44.9389 25.8998 45.1025 26.8897 45 27.87C44.8974 28.8503 44.5324 29.7848 43.9434 30.5752Z" fill="white"/>
<path d="M33 8.9375C28.2409 8.9375 23.5887 10.3487 19.6316 12.9928C15.6745 15.6368 12.5904 19.3948 10.7692 23.7917C8.94793 28.1885 8.47141 33.0267 9.39986 37.6944C10.3283 42.362 12.6201 46.6496 15.9853 50.0148C19.3505 53.38 23.638 55.6717 28.3056 56.6001C32.9733 57.5286 37.8115 57.0521 42.2083 55.2309C46.6052 53.4096 50.3632 50.3255 53.0072 46.3684C55.6513 42.4114 57.0625 37.7591 57.0625 33C57.0553 26.6204 54.5178 20.5043 50.0068 15.9932C45.4957 11.4822 39.3796 8.94474 33 8.9375ZM33 54.875C28.6735 54.875 24.4442 53.5921 20.8469 51.1884C17.2496 48.7847 14.4458 45.3683 12.7901 41.3712C11.1345 37.3741 10.7013 32.9757 11.5453 28.7324C12.3894 24.4891 14.4728 20.5913 17.532 17.532C20.5913 14.4728 24.4891 12.3894 28.7324 11.5453C32.9757 10.7013 37.3741 11.1345 41.3712 12.7901C45.3683 14.4458 48.7847 17.2496 51.1884 20.8469C53.5921 24.4442 54.875 28.6735 54.875 33C54.8684 38.7996 52.5615 44.3597 48.4606 48.4606C44.3597 52.5615 38.7996 54.8683 33 54.875Z" fill="white"/>
<path d="M33 12.2188C28.8899 12.2188 24.872 13.4375 21.4546 15.721C18.0371 18.0045 15.3735 21.2501 13.8006 25.0474C12.2278 28.8446 11.8162 33.0231 12.6181 37.0542C13.4199 41.0854 15.3991 44.7883 18.3054 47.6946C21.2118 50.6009 24.9146 52.5801 28.9458 53.3819C32.977 54.1838 37.1554 53.7723 40.9526 52.1994C44.7499 50.6265 47.9955 47.9629 50.279 44.5454C52.5625 41.128 53.7813 37.1101 53.7813 33C53.7752 27.4903 51.5838 22.2081 47.6879 18.3122C43.7919 14.4162 38.5097 12.2248 33 12.2188ZM33 51.5938C29.3225 51.5938 25.7276 50.5032 22.6699 48.4601C19.6121 46.417 17.2289 43.5131 15.8216 40.1155C14.4143 36.718 14.0461 32.9794 14.7635 29.3725C15.481 25.7657 17.2519 22.4526 19.8522 19.8522C22.4526 17.2519 25.7657 15.481 29.3725 14.7635C32.9794 14.0461 36.718 14.4143 40.1155 15.8216C43.5131 17.2289 46.417 19.6121 48.4601 22.6699C50.5033 25.7276 51.5938 29.3225 51.5938 33C51.5883 37.9297 49.6275 42.6559 46.1417 46.1417C42.6559 49.6275 37.9297 51.5882 33 51.5938Z" fill="white"/>
<path d="M7.84375 43.9375H6.75V25.2256C7.72869 25.036 8.63942 24.5897 9.38894 23.9325C10.1385 23.2752 10.6998 22.4306 11.0156 21.485L11.0725 21.3144C11.1056 21.2122 11.1233 21.1057 11.125 20.9983C11.125 20.9873 11.1305 20.9797 11.1305 20.9688V10.0312C11.1305 9.74117 11.0152 9.46297 10.8101 9.25785C10.605 9.05273 10.3268 8.9375 10.0367 8.9375C9.74664 8.9375 9.46844 9.05273 9.26332 9.25785C9.0582 9.46297 8.94297 9.74117 8.94297 10.0312V19.875H6.75V8.9375C6.75 8.64742 6.63477 8.36922 6.42965 8.1641C6.22453 7.95898 5.94633 7.84375 5.65625 7.84375C5.36617 7.84375 5.08797 7.95898 4.88285 8.1641C4.67773 8.36922 4.5625 8.64742 4.5625 8.9375V19.875H2.375V10.0312C2.375 9.74117 2.25977 9.46297 2.05465 9.25785C1.84953 9.05273 1.57133 8.9375 1.28125 8.9375C0.991169 8.9375 0.71297 9.05273 0.507852 9.25785C0.302734 9.46297 0.1875 9.74117 0.1875 10.0312V20.9688C0.1875 20.9786 0.1875 20.9873 0.1875 20.9983C0.188825 21.1056 0.206151 21.2122 0.238906 21.3144L0.295781 21.485C0.611652 22.4307 1.17321 23.2754 1.92293 23.9327C2.67266 24.59 3.58361 25.0362 4.5625 25.2256V43.9375H3.46875C3.17867 43.9375 2.90047 44.0527 2.69535 44.2579C2.49023 44.463 2.375 44.7412 2.375 45.0312V62.5312C2.375 63.4015 2.7207 64.2361 3.33606 64.8514C3.95141 65.4668 4.78601 65.8125 5.65625 65.8125C6.52649 65.8125 7.36109 65.4668 7.97644 64.8514C8.5918 64.2361 8.9375 63.4015 8.9375 62.5312V45.0312C8.9375 44.7412 8.82227 44.463 8.61715 44.2579C8.41203 44.0527 8.13383 43.9375 7.84375 43.9375ZM8.18281 22.0625C7.85921 22.4083 7.46791 22.6839 7.03326 22.8721C6.5986 23.0602 6.12988 23.157 5.65625 23.1562C5.18262 23.157 4.7139 23.0602 4.27924 22.8721C3.84459 22.6839 3.45329 22.4083 3.12969 22.0625H8.18281ZM6.75 62.5312C6.75 62.8213 6.63477 63.0995 6.42965 63.3046C6.22453 63.5098 5.94633 63.625 5.65625 63.625C5.36617 63.625 5.08797 63.5098 4.88285 63.3046C4.67773 63.0995 4.5625 62.8213 4.5625 62.5312V46.125H6.75V62.5312Z" fill="white"/>
<path d="M59.25 12.2188C58.9599 12.2188 58.6817 12.334 58.4766 12.5391C58.2715 12.7442 58.1562 13.0224 58.1562 13.3125V63.0781C58.1562 63.8033 58.4443 64.4988 58.9571 65.0116C59.4699 65.5244 60.1654 65.8125 60.8906 65.8125C61.6158 65.8125 62.3113 65.5244 62.8241 65.0116C63.3369 64.4988 63.625 63.8033 63.625 63.0781V46.125H64.7188C65.0088 46.125 65.287 46.0098 65.4921 45.8046C65.6973 45.5995 65.8125 45.3213 65.8125 45.0312V18.7812C65.8108 17.0413 65.1188 15.3731 63.8885 14.1428C62.6581 12.9124 60.99 12.2205 59.25 12.2188ZM61.4375 63.0781C61.4375 63.2232 61.3799 63.3623 61.2773 63.4648C61.1748 63.5674 61.0357 63.625 60.8906 63.625C60.7456 63.625 60.6065 63.5674 60.5039 63.4648C60.4014 63.3623 60.3438 63.2232 60.3438 63.0781V46.125H61.4375V63.0781ZM63.625 43.9375H60.3438V14.5452C61.2824 14.7885 62.1138 15.3364 62.7076 16.103C63.3014 16.8696 63.6241 17.8116 63.625 18.7812V43.9375Z" fill="white"/>
</svg>
