<svg width="66" height="66" viewBox="0 0 66 66" fill="none" xmlns="http://www.w3.org/2000/svg">
<path d="M23.1562 53.7812C23.1562 52.3834 21.4916 49.8208 20.7752 48.785C20.6691 48.647 20.5328 48.5353 20.3767 48.4584C20.2207 48.3815 20.049 48.3415 19.875 48.3415C19.701 48.3415 19.5293 48.3815 19.3733 48.4584C19.2172 48.5353 19.0809 48.647 18.9748 48.785C18.2584 49.8208 16.5938 52.3834 16.5938 53.7812C16.5938 54.6515 16.9395 55.4861 17.5548 56.1014C18.1702 56.7168 19.0048 57.0625 19.875 57.0625C20.7452 57.0625 21.5798 56.7168 22.1952 56.1014C22.8105 55.4861 23.1562 54.6515 23.1562 53.7812ZM19.875 54.875C19.5849 54.875 19.3067 54.7598 19.1016 54.5546C18.8965 54.3495 18.7812 54.0713 18.7812 53.7812C19.0184 52.9452 19.3876 52.1525 19.875 51.433C20.3623 52.1525 20.7315 52.9452 20.9688 53.7812C20.9688 54.0713 20.8535 54.3495 20.6484 54.5546C20.4433 54.7598 20.1651 54.875 19.875 54.875Z" fill="white"/>
<path d="M31.9062 53.7812C31.9062 52.3834 30.2416 49.8208 29.5252 48.785C29.4191 48.647 29.2828 48.5353 29.1267 48.4584C28.9707 48.3815 28.799 48.3415 28.625 48.3415C28.451 48.3415 28.2793 48.3815 28.1233 48.4584C27.9672 48.5353 27.8309 48.647 27.7248 48.785C27.0084 49.8208 25.3438 52.3834 25.3438 53.7812C25.3438 54.6515 25.6895 55.4861 26.3048 56.1014C26.9202 56.7168 27.7548 57.0625 28.625 57.0625C29.4952 57.0625 30.3298 56.7168 30.9452 56.1014C31.5605 55.4861 31.9062 54.6515 31.9062 53.7812ZM28.625 54.875C28.3349 54.875 28.0567 54.7598 27.8516 54.5546C27.6465 54.3495 27.5312 54.0713 27.5312 53.7812C27.7684 52.9452 28.1376 52.1525 28.625 51.433C29.1123 52.1525 29.4815 52.9452 29.7188 53.7812C29.7188 54.0713 29.6035 54.3495 29.3984 54.5546C29.1933 54.7598 28.9151 54.875 28.625 54.875Z" fill="white"/>
<path d="M40.6562 53.7812C40.6562 52.3834 38.9916 49.8208 38.2752 48.785C38.1691 48.647 38.0328 48.5353 37.8767 48.4584C37.7207 48.3815 37.549 48.3415 37.375 48.3415C37.201 48.3415 37.0293 48.3815 36.8733 48.4584C36.7172 48.5353 36.5809 48.647 36.4748 48.785C35.7584 49.8208 34.0938 52.3834 34.0938 53.7812C34.0938 54.6515 34.4395 55.4861 35.0548 56.1014C35.6702 56.7168 36.5048 57.0625 37.375 57.0625C38.2452 57.0625 39.0798 56.7168 39.6952 56.1014C40.3105 55.4861 40.6562 54.6515 40.6562 53.7812ZM37.375 54.875C37.0849 54.875 36.8067 54.7598 36.6016 54.5546C36.3965 54.3495 36.2812 54.0713 36.2812 53.7812C36.5184 52.9452 36.8876 52.1525 37.375 51.433C37.8623 52.1525 38.2315 52.9452 38.4688 53.7812C38.4688 54.0713 38.3535 54.3495 38.1484 54.5546C37.9433 54.7598 37.6651 54.875 37.375 54.875Z" fill="white"/>
<path d="M49.4062 53.7812C49.4062 52.3834 47.7416 49.8208 47.0252 48.785C46.9191 48.647 46.7828 48.5353 46.6267 48.4584C46.4707 48.3815 46.299 48.3415 46.125 48.3415C45.951 48.3415 45.7793 48.3815 45.6233 48.4584C45.4672 48.5353 45.3309 48.647 45.2248 48.785C44.5084 49.8208 42.8438 52.3834 42.8438 53.7812C42.8438 54.6515 43.1895 55.4861 43.8048 56.1014C44.4202 56.7168 45.2548 57.0625 46.125 57.0625C46.9952 57.0625 47.8298 56.7168 48.4452 56.1014C49.0605 55.4861 49.4062 54.6515 49.4062 53.7812ZM46.125 54.875C45.8349 54.875 45.5567 54.7598 45.3516 54.5546C45.1465 54.3495 45.0312 54.0713 45.0312 53.7812C45.2694 52.9456 45.6386 52.153 46.125 51.433C46.6126 52.1523 46.9818 52.9451 47.2188 53.7812C47.2188 54.0713 47.1035 54.3495 46.8984 54.5546C46.6933 54.7598 46.4151 54.875 46.125 54.875Z" fill="white"/>
<path d="M54.875 52.6875H51.5938V54.875H53.7812V59.25H50.5V58.1562C50.5 57.8662 50.3848 57.588 50.1796 57.3829C49.9745 57.1777 49.6963 57.0625 49.4062 57.0625H16.5938C16.3037 57.0625 16.0255 57.1777 15.8204 57.3829C15.6152 57.588 15.5 57.8662 15.5 58.1562V59.25H12.2188V54.875H14.4062V52.6875H11.125C10.8349 52.6875 10.5567 52.8027 10.3516 53.0079C10.1465 53.213 10.0312 53.4912 10.0312 53.7812V60.3438C10.0312 60.6338 10.1465 60.912 10.3516 61.1171C10.5567 61.3223 10.8349 61.4375 11.125 61.4375H15.5V64.7188C15.5 65.0088 15.6152 65.287 15.8204 65.4921C16.0255 65.6973 16.3037 65.8125 16.5938 65.8125H49.4062C49.6963 65.8125 49.9745 65.6973 50.1796 65.4921C50.3848 65.287 50.5 65.0088 50.5 64.7188V61.4375H54.875C55.1651 61.4375 55.4433 61.3223 55.6484 61.1171C55.8535 60.912 55.9688 60.6338 55.9688 60.3438V53.7812C55.9688 53.4912 55.8535 53.213 55.6484 53.0079C55.4433 52.8027 55.1651 52.6875 54.875 52.6875ZM48.3125 63.625H17.6875V59.25H48.3125V63.625Z" fill="white"/>
<path d="M54.875 38.4688V35.1875H52.6875V38.4688C52.6875 38.7588 52.5723 39.037 52.3671 39.2421C52.162 39.4473 51.8838 39.5625 51.5938 39.5625H49.4062V41.75H51.5938C52.464 41.75 53.2986 41.4043 53.9139 40.7889C54.5293 40.1736 54.875 39.339 54.875 38.4688Z" fill="white"/>
<path d="M62.5312 17.6875H59.25V14.4062C59.2492 14.183 59.1796 13.9654 59.0506 13.7832C58.9216 13.6009 58.7395 13.4629 58.5292 13.388V13.3792L38.3988 6.00406C38.4411 5.89277 38.4647 5.77525 38.4688 5.65625V3.46875C38.4688 2.59851 38.123 1.76391 37.5077 1.14856C36.8923 0.533202 36.0577 0.1875 35.1875 0.1875H30.8125C29.9423 0.1875 29.1077 0.533202 28.4923 1.14856C27.877 1.76391 27.5312 2.59851 27.5312 3.46875V5.65625C27.5353 5.77525 27.5589 5.89277 27.6012 6.00406L7.4675 13.3792V13.388C7.2578 13.4635 7.07643 13.6017 6.94806 13.7839C6.81968 13.9661 6.75053 14.1834 6.75 14.4062V17.6875H3.46875C2.59851 17.6875 1.76391 18.0332 1.14856 18.6486C0.533202 19.2639 0.1875 20.0985 0.1875 20.9688V23.1562C0.1875 24.0265 0.533202 24.8611 1.14856 25.4764C1.76391 26.0918 2.59851 26.4375 3.46875 26.4375H6.75V40.6562C6.75174 42.1061 7.32846 43.4961 8.35368 44.5213C9.37889 45.5465 10.7689 46.1233 12.2188 46.125H53.7812C55.2311 46.1233 56.6211 45.5465 57.6463 44.5213C58.6715 43.4961 59.2483 42.1061 59.25 40.6562V26.4375H62.5312C63.4015 26.4375 64.2361 26.0918 64.8514 25.4764C65.4668 24.8611 65.8125 24.0265 65.8125 23.1562V20.9688C65.8125 20.0985 65.4668 19.2639 64.8514 18.6486C64.2361 18.0332 63.4015 17.6875 62.5312 17.6875ZM29.3294 7.70156C29.3739 7.68495 29.4174 7.66559 29.4595 7.64359C30.5527 7.07395 31.7673 6.77651 33 6.77651C34.2327 6.77651 35.4473 7.07395 36.5405 7.64359C36.5826 7.66559 36.6261 7.68495 36.6706 7.70156L51.9908 13.3125H14.0092L29.3294 7.70156ZM57.0625 15.5V17.6875H8.9375V15.5H57.0625ZM29.7188 3.46875C29.7188 3.17867 29.834 2.90047 30.0391 2.69535C30.2442 2.49023 30.5224 2.375 30.8125 2.375H35.1875C35.4776 2.375 35.7558 2.49023 35.9609 2.69535C36.166 2.90047 36.2812 3.17867 36.2812 3.46875V4.5625H29.7188V3.46875ZM3.46875 24.25C3.17867 24.25 2.90047 24.1348 2.69535 23.9296C2.49023 23.7245 2.375 23.4463 2.375 23.1562V20.9688C2.375 20.6787 2.49023 20.4005 2.69535 20.1954C2.90047 19.9902 3.17867 19.875 3.46875 19.875H6.75V24.25H3.46875ZM57.0625 40.6562C57.0625 41.5265 56.7168 42.3611 56.1014 42.9764C55.4861 43.5918 54.6515 43.9375 53.7812 43.9375H12.2188C11.3485 43.9375 10.5139 43.5918 9.89856 42.9764C9.2832 42.3611 8.9375 41.5265 8.9375 40.6562V19.875H57.0625V40.6562ZM63.625 23.1562C63.625 23.4463 63.5098 23.7245 63.3046 23.9296C63.0995 24.1348 62.8213 24.25 62.5312 24.25H59.25V19.875H62.5312C62.8213 19.875 63.0995 19.9902 63.3046 20.1954C63.5098 20.4005 63.625 20.6787 63.625 20.9688V23.1562Z" fill="white"/>
</svg>
