<svg width="63" height="66" viewBox="0 0 63 66" fill="none" xmlns="http://www.w3.org/2000/svg">
<path d="M56.1564 24.25H45.2189C43.848 24.254 42.5289 24.7738 41.5237 25.706C40.5186 26.6382 39.901 27.9146 39.7939 29.2812L33.1877 37.5391V37.375C33.2012 34.9908 32.3496 32.6826 30.7909 30.8785C29.2321 29.0744 27.072 27.8968 24.7111 27.5641L21.747 26.5797L21.1564 25.9891V22.8719C22.0147 22.2718 22.741 21.5022 23.2903 20.6105C23.8396 19.7188 24.2003 18.724 24.3502 17.6875H25.5314C26.111 17.6858 26.6664 17.4547 27.0763 17.0449C27.4862 16.635 27.7172 16.0796 27.7189 15.5V14.4062C27.7172 13.8266 27.4862 13.2712 27.0763 12.8614C26.6664 12.4515 26.111 12.2205 25.5314 12.2188H24.4377V11.9125C25.4481 11.2111 26.274 10.276 26.8453 9.18668C27.4166 8.09741 27.7163 6.88624 27.7189 5.65625V1.28125C27.7189 0.991169 27.6037 0.71297 27.3986 0.507852C27.1934 0.302734 26.9152 0.1875 26.6252 0.1875H13.5002C11.4703 0.189816 9.52425 0.997198 8.08893 2.43252C6.65361 3.86785 5.84622 5.8139 5.84391 7.84375V10.0312C5.84715 10.5004 5.95027 10.9635 6.1464 11.3897C6.34253 11.8159 6.62718 12.1955 6.98141 12.5031C6.63822 12.6888 6.35144 12.9635 6.15126 13.2984C5.95107 13.6334 5.8449 14.0161 5.84391 14.4062V15.5C5.84564 16.0796 6.07666 16.635 6.48653 17.0449C6.89639 17.4547 7.45178 17.6858 8.03141 17.6875H9.21266C9.36253 18.724 9.72325 19.7188 10.2725 20.6105C10.8219 21.5022 11.5481 22.2718 12.4064 22.8719V25.9891L11.8158 26.5797L8.85172 27.5641C6.49082 27.8968 4.33069 29.0744 2.77194 30.8785C1.2132 32.6826 0.361626 34.9908 0.375159 37.375V64.7188C0.375159 65.0088 0.490393 65.287 0.695511 65.4921C0.900629 65.6973 1.17883 65.8125 1.46891 65.8125H29.9064C30.7759 65.8099 31.6089 65.4634 32.2237 64.8486C32.8385 64.2338 33.1851 63.4007 33.1877 62.5312V53.0156L47.997 30.8125H51.7814C53.2318 30.8125 54.6228 30.2363 55.6484 29.2107C56.674 28.1852 57.2502 26.7942 57.2502 25.3438C57.2502 25.0537 57.1349 24.7755 56.9298 24.5704C56.7247 24.3652 56.4465 24.25 56.1564 24.25ZM25.5314 14.4062V15.5H24.4377V14.4062H25.5314ZM9.12516 15.5H8.03141V14.4062H9.12516V15.5ZM9.72672 9.05781C9.54539 9.14749 9.39286 9.28628 9.28652 9.45837C9.18017 9.63046 9.12426 9.82895 9.12516 10.0312V11.125C8.83508 11.125 8.55688 11.0098 8.35176 10.8046C8.14664 10.5995 8.03141 10.3213 8.03141 10.0312V7.84375C8.03141 6.39335 8.60758 5.00235 9.63317 3.97676C10.6588 2.95117 12.0498 2.375 13.5002 2.375H25.5314V5.65625C25.5288 6.99794 25.0301 8.29128 24.1314 9.2875C23.9877 9.13706 23.8065 9.02758 23.6064 8.97031L14.8564 6.78281C14.6026 6.71865 14.3341 6.74978 14.1017 6.87031L9.72672 9.05781ZM11.3127 16.5938V10.7094L14.7252 9.00313L22.2502 10.8844V16.5938C22.2502 18.0442 21.674 19.4352 20.6484 20.4607C19.6228 21.4863 18.2318 22.0625 16.7814 22.0625C15.331 22.0625 13.94 21.4863 12.9144 20.4607C11.8888 19.4352 11.3127 18.0442 11.3127 16.5938ZM19.2861 27.2141L19.6142 27.5312L16.7814 30.3641L13.9486 27.5312L14.2767 27.2141C14.4782 27.0055 14.5917 26.7275 14.5939 26.4375V23.9328C16.0216 24.3557 17.5412 24.3557 18.9689 23.9328V26.4375C18.9711 26.7275 19.0846 27.0055 19.2861 27.2141ZM12.1111 28.7781L16.0048 32.6828C16.2114 32.8877 16.4905 33.0027 16.7814 33.0027C17.0723 33.0027 17.3515 32.8877 17.558 32.6828L21.4517 28.7781L22.6877 29.1938L18.4111 35.1875H15.1517L10.8752 29.1938L12.1111 28.7781ZM18.772 41.75L19.9861 49.0344L16.7814 52.2391L13.5767 49.0344L14.7908 41.75H18.772ZM15.1517 39.5625L15.5236 37.375H18.0392L18.4111 39.5625H15.1517ZM6.93766 63.625H2.56266V50.5H6.93766V63.625ZM31.1861 52.0859C31.0645 52.2629 30.9996 52.4728 31.0002 52.6875V62.5312C31.0002 62.8213 30.8849 63.0995 30.6798 63.3046C30.4747 63.5098 30.1965 63.625 29.9064 63.625H9.12516V49.4062C9.12516 49.1162 9.00992 48.838 8.80481 48.6329C8.59969 48.4277 8.32149 48.3125 8.03141 48.3125H2.56266V37.375C2.55016 35.6091 3.14722 33.8929 4.25309 32.516C5.35895 31.1392 6.90593 30.1859 8.63297 29.8172L13.4455 36.5438L11.3236 49.2313C11.2963 49.4028 11.3099 49.5783 11.3631 49.7436C11.4163 49.9089 11.5077 50.0594 11.6298 50.1828L16.0048 54.5578C16.2122 54.7612 16.491 54.8751 16.7814 54.8751C17.0718 54.8751 17.3506 54.7612 17.558 54.5578L21.933 50.1828C22.0552 50.0594 22.1466 49.9089 22.1998 49.7436C22.253 49.5783 22.2665 49.4028 22.2392 49.2313L20.1173 36.5438L24.9298 29.8172C26.6569 30.1859 28.2039 31.1392 29.3097 32.516C30.4156 33.8929 31.0127 35.6091 31.0002 37.375V40.6562C31.0011 40.8823 31.072 41.1026 31.2032 41.2867C31.3345 41.4708 31.5195 41.6098 31.733 41.6844C31.9465 41.7608 32.1786 41.7681 32.3965 41.7053C32.6144 41.6425 32.807 41.5127 32.947 41.3344L41.3689 30.8125H45.3611L31.1861 52.0859ZM51.7814 28.625H42.1236C42.3518 27.9862 42.7715 27.4334 43.3254 27.0419C43.8794 26.6504 44.5406 26.4394 45.2189 26.4375H54.8767C54.6485 27.0763 54.2288 27.6291 53.6749 28.0206C53.1209 28.4121 52.4597 28.6231 51.7814 28.625Z" fill="white"/>
<path d="M60.5312 15.6969V15.5C60.5274 13.1734 59.7835 10.9083 58.4071 9.03246C57.0307 7.15663 55.0932 5.76735 52.8749 5.06563V3.46875C52.8749 2.59851 52.5292 1.76391 51.9139 1.14856C51.2985 0.533202 50.4639 0.1875 49.5937 0.1875C48.7243 0.190097 47.8912 0.536633 47.2764 1.15142C46.6616 1.76622 46.315 2.59931 46.3124 3.46875V5.06563C44.0942 5.76735 42.1567 7.15663 40.7803 9.03246C39.4039 10.9083 38.66 13.1734 38.6562 15.5V15.6969C37.9328 15.9594 37.3247 16.4677 36.9382 17.1331C36.5516 17.7985 36.4112 18.5786 36.5415 19.337C36.6718 20.0954 37.0646 20.7839 37.651 21.2821C38.2375 21.7803 38.9804 22.0565 39.7499 22.0625H59.4374C60.2069 22.0565 60.9499 21.7803 61.5363 21.2821C62.1228 20.7839 62.5155 20.0954 62.6459 19.337C62.7762 18.5786 62.6358 17.7985 62.2492 17.1331C61.8627 16.4677 61.2546 15.9594 60.5312 15.6969ZM48.4999 3.46875C48.4999 3.17867 48.6152 2.90047 48.8203 2.69535C49.0254 2.49023 49.3036 2.375 49.5937 2.375C49.7397 2.37372 49.8843 2.40325 50.0181 2.46168C50.152 2.5201 50.2719 2.60611 50.3703 2.71406C50.4726 2.81094 50.5537 2.92808 50.6083 3.05801C50.6629 3.18794 50.6899 3.32783 50.6874 3.46875V4.61719C50.3265 4.58438 49.9656 4.5625 49.5937 4.5625C49.2218 4.5625 48.8609 4.58438 48.4999 4.61719V3.46875ZM49.5937 6.75C51.9134 6.75318 54.1371 7.67608 55.7774 9.31633C57.4176 10.9566 58.3405 13.1803 58.3437 15.5H44.1249C44.1249 14.0496 44.7011 12.6586 45.7267 11.633C46.7523 10.6074 48.1433 10.0312 49.5937 10.0312V7.84375C47.5638 7.84607 45.6178 8.65345 44.1825 10.0888C42.7471 11.5241 41.9398 13.4701 41.9374 15.5H40.8437C40.8469 13.1803 41.7698 10.9566 43.41 9.31633C45.0503 7.67608 47.274 6.75318 49.5937 6.75ZM59.4374 19.875H39.7499C39.4599 19.875 39.1817 19.7598 38.9765 19.5546C38.7714 19.3495 38.6562 19.0713 38.6562 18.7812C38.6562 18.4912 38.7714 18.213 38.9765 18.0079C39.1817 17.8027 39.4599 17.6875 39.7499 17.6875H59.4374C59.7275 17.6875 60.0057 17.8027 60.2108 18.0079C60.416 18.213 60.5312 18.4912 60.5312 18.7812C60.5312 19.0713 60.416 19.3495 60.2108 19.5546C60.0057 19.7598 59.7275 19.875 59.4374 19.875Z" fill="white"/>
<path d="M15.6875 12.2188H13.5V14.4062H15.6875V12.2188Z" fill="white"/>
<path d="M20.0625 12.2188H17.875V14.4062H20.0625V12.2188Z" fill="white"/>
</svg>
